<mxfile host="Electron" agent="Mozilla/5.0 (Windows NT 10.0; Win64; x64) AppleWebKit/537.36 (KHTML, like Gecko) draw.io/24.7.17 Chrome/128.0.6613.36 Electron/32.0.1 Safari/537.36" version="24.7.17">
  <diagram name="Trang-1" id="bMiknARZJnXVaoL8tnX3">
    <mxGraphModel dx="1201" dy="820" grid="1" gridSize="10" guides="1" tooltips="1" connect="1" arrows="1" fold="1" page="1" pageScale="1" pageWidth="827" pageHeight="1169" math="0" shadow="0">
      <root>
        <mxCell id="0" />
        <mxCell id="1" parent="0" />
        <mxCell id="c5IgZS8KUTy0unRA6LIm-13" style="edgeStyle=orthogonalEdgeStyle;rounded=0;orthogonalLoop=1;jettySize=auto;html=1;exitX=0.5;exitY=1;exitDx=0;exitDy=0;entryX=0.5;entryY=0;entryDx=0;entryDy=0;" parent="1" source="gOC3_Gfe7DvDGcyzSAZS-1" target="c5IgZS8KUTy0unRA6LIm-6" edge="1">
          <mxGeometry relative="1" as="geometry" />
        </mxCell>
        <object label="Start" start="" id="gOC3_Gfe7DvDGcyzSAZS-1">
          <mxCell style="ellipse;whiteSpace=wrap;html=1;fontSize=24;" parent="1" vertex="1">
            <mxGeometry x="530" y="20" width="120" height="60" as="geometry" />
          </mxCell>
        </object>
        <object label="end" start="" id="c5IgZS8KUTy0unRA6LIm-1">
          <mxCell style="ellipse;whiteSpace=wrap;html=1;fontSize=24;" parent="1" vertex="1">
            <mxGeometry x="450" y="650" width="120" height="60" as="geometry" />
          </mxCell>
        </object>
        <mxCell id="c5IgZS8KUTy0unRA6LIm-6" value="nhập giá trị ax + b" style="shape=parallelogram;perimeter=parallelogramPerimeter;whiteSpace=wrap;html=1;fixedSize=1;" parent="1" vertex="1">
          <mxGeometry x="530" y="160" width="120" height="60" as="geometry" />
        </mxCell>
        <mxCell id="RoReMOkBkYpSv9IFZ_Ye-49" value="a = 0&amp;nbsp;" style="rhombus;whiteSpace=wrap;html=1;" vertex="1" parent="1">
          <mxGeometry x="380" y="250" width="160" height="80" as="geometry" />
        </mxCell>
        <mxCell id="RoReMOkBkYpSv9IFZ_Ye-50" value="b = 0" style="rounded=0;whiteSpace=wrap;html=1;" vertex="1" parent="1">
          <mxGeometry x="300" y="380" width="120" height="60" as="geometry" />
        </mxCell>
        <mxCell id="RoReMOkBkYpSv9IFZ_Ye-51" value="a khác 0" style="rhombus;whiteSpace=wrap;html=1;" vertex="1" parent="1">
          <mxGeometry x="600" y="250" width="160" height="80" as="geometry" />
        </mxCell>
        <mxCell id="RoReMOkBkYpSv9IFZ_Ye-52" value="b khác 0" style="rounded=0;whiteSpace=wrap;html=1;" vertex="1" parent="1">
          <mxGeometry x="460" y="380" width="120" height="60" as="geometry" />
        </mxCell>
        <mxCell id="RoReMOkBkYpSv9IFZ_Ye-53" value="x = -b/a" style="rounded=0;whiteSpace=wrap;html=1;" vertex="1" parent="1">
          <mxGeometry x="620" y="380" width="120" height="60" as="geometry" />
        </mxCell>
        <mxCell id="RoReMOkBkYpSv9IFZ_Ye-54" value="in (vô số nghiệm)" style="shape=parallelogram;perimeter=parallelogramPerimeter;whiteSpace=wrap;html=1;fixedSize=1;" vertex="1" parent="1">
          <mxGeometry x="300" y="500" width="120" height="60" as="geometry" />
        </mxCell>
        <mxCell id="RoReMOkBkYpSv9IFZ_Ye-55" value="in (vô nghiệm)" style="shape=parallelogram;perimeter=parallelogramPerimeter;whiteSpace=wrap;html=1;fixedSize=1;" vertex="1" parent="1">
          <mxGeometry x="460" y="500" width="120" height="60" as="geometry" />
        </mxCell>
        <mxCell id="RoReMOkBkYpSv9IFZ_Ye-56" value="in kết quả" style="shape=parallelogram;perimeter=parallelogramPerimeter;whiteSpace=wrap;html=1;fixedSize=1;" vertex="1" parent="1">
          <mxGeometry x="620" y="500" width="120" height="60" as="geometry" />
        </mxCell>
        <mxCell id="RoReMOkBkYpSv9IFZ_Ye-57" value="" style="endArrow=classic;html=1;rounded=0;entryX=0.5;entryY=0;entryDx=0;entryDy=0;exitX=0;exitY=0.5;exitDx=0;exitDy=0;" edge="1" parent="1" source="c5IgZS8KUTy0unRA6LIm-6" target="RoReMOkBkYpSv9IFZ_Ye-49">
          <mxGeometry width="50" height="50" relative="1" as="geometry">
            <mxPoint x="370" y="215" as="sourcePoint" />
            <mxPoint x="420" y="165" as="targetPoint" />
            <Array as="points">
              <mxPoint x="460" y="190" />
            </Array>
          </mxGeometry>
        </mxCell>
        <mxCell id="RoReMOkBkYpSv9IFZ_Ye-59" value="" style="endArrow=classic;html=1;rounded=0;entryX=0.5;entryY=0;entryDx=0;entryDy=0;exitX=1;exitY=0.5;exitDx=0;exitDy=0;" edge="1" parent="1" source="c5IgZS8KUTy0unRA6LIm-6">
          <mxGeometry width="50" height="50" relative="1" as="geometry">
            <mxPoint x="760" y="190" as="sourcePoint" />
            <mxPoint x="680" y="250" as="targetPoint" />
            <Array as="points">
              <mxPoint x="680" y="190" />
            </Array>
          </mxGeometry>
        </mxCell>
        <mxCell id="RoReMOkBkYpSv9IFZ_Ye-60" value="" style="endArrow=classic;html=1;rounded=0;entryX=0.5;entryY=0;entryDx=0;entryDy=0;exitX=0;exitY=0.5;exitDx=0;exitDy=0;" edge="1" parent="1" source="RoReMOkBkYpSv9IFZ_Ye-49" target="RoReMOkBkYpSv9IFZ_Ye-50">
          <mxGeometry width="50" height="50" relative="1" as="geometry">
            <mxPoint x="380" y="300" as="sourcePoint" />
            <mxPoint x="300" y="360" as="targetPoint" />
            <Array as="points">
              <mxPoint x="360" y="290" />
            </Array>
          </mxGeometry>
        </mxCell>
        <mxCell id="RoReMOkBkYpSv9IFZ_Ye-61" value="" style="endArrow=classic;html=1;rounded=0;entryX=0.5;entryY=0;entryDx=0;entryDy=0;exitX=0.949;exitY=0.495;exitDx=0;exitDy=0;exitPerimeter=0;" edge="1" parent="1" source="RoReMOkBkYpSv9IFZ_Ye-49">
          <mxGeometry width="50" height="50" relative="1" as="geometry">
            <mxPoint x="570" y="290" as="sourcePoint" />
            <mxPoint x="550" y="380" as="targetPoint" />
            <Array as="points">
              <mxPoint x="550" y="290" />
            </Array>
          </mxGeometry>
        </mxCell>
        <mxCell id="RoReMOkBkYpSv9IFZ_Ye-62" value="" style="endArrow=classic;html=1;rounded=0;entryX=0.5;entryY=0;entryDx=0;entryDy=0;" edge="1" parent="1">
          <mxGeometry width="50" height="50" relative="1" as="geometry">
            <mxPoint x="679.62" y="330" as="sourcePoint" />
            <mxPoint x="679.62" y="370" as="targetPoint" />
            <Array as="points">
              <mxPoint x="679.62" y="330" />
            </Array>
          </mxGeometry>
        </mxCell>
        <mxCell id="RoReMOkBkYpSv9IFZ_Ye-63" value="" style="endArrow=classic;html=1;rounded=0;entryX=0.5;entryY=0;entryDx=0;entryDy=0;" edge="1" parent="1" target="RoReMOkBkYpSv9IFZ_Ye-56">
          <mxGeometry width="50" height="50" relative="1" as="geometry">
            <mxPoint x="679.62" y="440" as="sourcePoint" />
            <mxPoint x="679.62" y="480" as="targetPoint" />
            <Array as="points">
              <mxPoint x="679.62" y="440" />
            </Array>
          </mxGeometry>
        </mxCell>
        <mxCell id="RoReMOkBkYpSv9IFZ_Ye-65" value="" style="endArrow=classic;html=1;rounded=0;entryX=0.5;entryY=0;entryDx=0;entryDy=0;" edge="1" parent="1">
          <mxGeometry width="50" height="50" relative="1" as="geometry">
            <mxPoint x="519.62" y="440" as="sourcePoint" />
            <mxPoint x="520" y="500" as="targetPoint" />
            <Array as="points">
              <mxPoint x="519.62" y="440" />
            </Array>
          </mxGeometry>
        </mxCell>
        <mxCell id="RoReMOkBkYpSv9IFZ_Ye-66" value="" style="endArrow=classic;html=1;rounded=0;entryX=0.5;entryY=0;entryDx=0;entryDy=0;" edge="1" parent="1">
          <mxGeometry width="50" height="50" relative="1" as="geometry">
            <mxPoint x="359.62" y="440" as="sourcePoint" />
            <mxPoint x="360" y="500" as="targetPoint" />
            <Array as="points">
              <mxPoint x="359.62" y="440" />
            </Array>
          </mxGeometry>
        </mxCell>
        <mxCell id="RoReMOkBkYpSv9IFZ_Ye-67" value="" style="endArrow=classic;html=1;rounded=0;entryX=1;entryY=0.5;entryDx=0;entryDy=0;" edge="1" parent="1" target="c5IgZS8KUTy0unRA6LIm-1">
          <mxGeometry width="50" height="50" relative="1" as="geometry">
            <mxPoint x="680" y="560" as="sourcePoint" />
            <mxPoint x="610.38" y="680" as="targetPoint" />
            <Array as="points">
              <mxPoint x="680" y="560" />
              <mxPoint x="680" y="680" />
            </Array>
          </mxGeometry>
        </mxCell>
        <mxCell id="RoReMOkBkYpSv9IFZ_Ye-68" value="" style="endArrow=classic;html=1;rounded=0;entryX=0;entryY=0.5;entryDx=0;entryDy=0;" edge="1" parent="1" target="c5IgZS8KUTy0unRA6LIm-1">
          <mxGeometry width="50" height="50" relative="1" as="geometry">
            <mxPoint x="350" y="560" as="sourcePoint" />
            <mxPoint x="240" y="680" as="targetPoint" />
            <Array as="points">
              <mxPoint x="350" y="560" />
              <mxPoint x="350" y="680" />
            </Array>
          </mxGeometry>
        </mxCell>
        <mxCell id="RoReMOkBkYpSv9IFZ_Ye-69" value="" style="endArrow=classic;html=1;rounded=0;entryX=0.579;entryY=-0.019;entryDx=0;entryDy=0;entryPerimeter=0;" edge="1" parent="1" target="c5IgZS8KUTy0unRA6LIm-1">
          <mxGeometry width="50" height="50" relative="1" as="geometry">
            <mxPoint x="519.62" y="560" as="sourcePoint" />
            <mxPoint x="520" y="620" as="targetPoint" />
            <Array as="points">
              <mxPoint x="519.62" y="560" />
            </Array>
          </mxGeometry>
        </mxCell>
      </root>
    </mxGraphModel>
  </diagram>
</mxfile>
